<svg width="219" height="219" viewBox="0 0 219 219" fill="none" xmlns="http://www.w3.org/2000/svg">
<circle cx="109.5" cy="109.5" r="109.5" fill="white"/>
<path d="M135.363 63.4363H84.4868V154.837H135.363V63.4363Z" fill="#FF5A00"/>
<path d="M87.8735 109.137C87.8735 90.5668 96.6037 74.0853 110 63.4363C100.141 55.6848 87.7042 51 74.1385 51C42.0024 51 16 77.0015 16 109.137C16 141.272 42.0024 167.273 74.1385 167.273C87.7042 167.273 100.141 162.588 110 154.837C96.5849 144.338 87.8735 127.706 87.8735 109.137Z" fill="#EB001B"/>
<path d="M204 109.137C204 141.272 177.998 167.273 145.861 167.273C132.296 167.273 119.859 162.588 110 154.837C123.566 144.169 132.127 127.706 132.127 109.137C132.127 90.5668 123.396 74.0853 110 63.4363C119.84 55.6848 132.277 51 145.843 51C177.998 51 204 77.1709 204 109.137Z" fill="#F79E1B"/>
</svg>
